<svg fill="#ffffff" role="img" viewBox="0 0 24 24" xmlns="http://www.w3.org/2000/svg"><title>Bluesky</title><path d="M5.71 1.633C8.76 3.92 12.04 8.56 13.24 11.05c1.2-2.49 4.48-7.13 7.53-9.417C22.97-.014 24 .69 24 3.51c0 .563-.323 4.73-.513 5.407-.66 2.353-3.06 2.953-5.193 2.59 3.73.633 4.678 2.733 2.628 4.832-3.892 3.985-5.594-1-6.03-2.28-.08-.235-.117-.345-.118-.252-.001-.093-.038.017-.118.252-.436 1.28-2.138 6.265-6.03 2.28-2.05-2.099-1.102-4.199 2.628-4.832-2.132.363-4.532-.237-5.193-2.59C2.323 8.24 2 4.073 2 3.51c0-2.82 1.03-3.524 2.71-1.877Z"/></svg>
