<svg fill="#ffffff" role="img" viewBox="0 0 24 24" xmlns="http://www.w3.org/2000/svg"><title>Threads</title><path d="M12.186 24h-.007c-3.581-.024-6.334-1.205-8.184-3.509C2.35 18.44 1.5 15.586 1.472 12.01v-.017c.03-3.579.879-6.43 2.525-8.482C5.845 1.205 8.6.024 12.18 0h.014c2.746.02 5.043.725 6.826 2.098 1.677 1.29 2.858 3.13 3.509 5.467l-2.04.569c-1.104-3.96-3.898-5.984-8.304-6.015-2.91.022-5.11.936-6.54 2.717C4.307 6.504 3.616 8.914 3.589 12c.027 3.086.718 5.496 2.057 7.164 1.43 1.783 3.631 2.698 6.54 2.717 2.623-.02 4.358-.631 5.8-2.045 1.647-1.613 1.618-3.593 1.09-4.798-.31-.71-.873-1.3-1.634-1.75-.192 1.352-.622 2.446-1.284 3.272-.886 1.102-2.14 1.704-3.73 1.79-1.202.065-2.36-.218-3.259-.801-1.063-.689-1.685-1.74-1.752-2.964-.065-1.19.408-2.285 1.33-3.082.88-.76 2.119-1.207 3.583-1.291a13.853 13.853 0 0 1 3.02.142c-.126-.742-.375-1.332-.74-1.757-.51-.586-1.297-.886-2.336-.893h-.026c-.836 0-1.973.23-2.7 1.31L9.27 7.155c.974-1.447 2.557-2.244 4.456-2.244h.037c3.173.02 5.061 1.953 5.7 4.42.354.123.69.265 1.005.426 1.31.674 2.275 1.69 2.79 2.939.717 1.738.781 4.57-1.522 6.81-1.762 1.715-3.901 2.485-6.953 2.508Zm1.795-8.836-.477-.013c-1.764 0-2.882.69-2.946 1.703-.073 1.131 1.058 1.741 2.144 1.798 1.075.06 2.547-.243 2.851-3.075a10.42 10.42 0 0 0-1.572-.413Z"/></svg>
