<svg fill="#000000" role="img" viewBox="0 0 24 24" xmlns="http://www.w3.org/2000/svg"><title>Snapchat</title><path d="M12.206.793c.99 0 4.347.276 5.93 3.821.529 1.193.403 3.219.299 4.847l-.003.06c-.012.18-.022.345-.03.51.075.045.203.09.401.09.3-.016.659-.12 1.033-.301.165-.088.344-.104.464-.104.182 0 .359.029.509.09.45.149.734.479.734.838.015.449-.39.839-1.213 1.168-.089.029-.209.075-.344.119-.45.135-1.139.36-1.333.81-.09.224-.061.524.12.868l.015.015c.06.136 1.526 3.475 4.791 4.014.255.044.435.27.42.509 0 .075-.015.149-.045.225-.24.569-1.273.988-3.146 1.271-.059.091-.12.375-.164.57-.029.179-.074.36-.134.553-.076.271-.27.405-.555.405h-.03c-.135 0-.313-.031-.538-.074-.36-.075-.765-.135-1.273-.135-.3 0-.599.015-.913.074-.6.104-1.123.464-1.723.884-.853.599-1.826 1.288-3.294 1.288-.06 0-.119-.014-.18-.014-.057.001-.114.014-.18.014-1.469 0-2.443-.689-3.279-1.288-.599-.42-1.123-.78-1.723-.884-.314-.06-.629-.074-.914-.074-.51 0-.929.089-1.272.134-.225.045-.405.061-.54.061-.404 0-.523-.225-.583-.45-.06-.193-.105-.359-.135-.539-.045-.195-.105-.479-.165-.57-1.889-.225-2.918-.644-3.156-1.226-.029-.061-.045-.135-.061-.225-.015-.24.166-.465.42-.509 3.265-.539 4.731-3.879 4.792-4.02l.014-.015c.181-.345.211-.645.12-.869-.196-.464-.885-.689-1.335-.824-.135-.044-.254-.09-.343-.119-1.107-.435-1.257-.936-1.197-1.273.09-.479.674-.793 1.168-.793.146 0 .27.029.383.074.42.194.789.3 1.104.3.234 0 .384-.06.465-.105l-.046-.569c-.098-1.626-.225-3.651.307-4.837C7.392 1.077 10.739.776 11.727.776l.419-.015h.06z"/></svg>
